<svg width="16" height="14" viewBox="0 0 16 14" fill="none" xmlns="http://www.w3.org/2000/svg">
    <path d="M8 0.270203L7.54688 1.30145L5.92188 4.94208L0.828125 5.48895L1.67188 6.23895L4.625 8.91083L3.5625 13.9108L4.54688 13.3483L8 11.3483L11.4531 13.3483L12.4375 13.9108L11.375 8.91083L14.3281 6.23895L15.1719 5.48895L10.0781 4.94208L8.45312 1.30145L8 0.270203ZM8 2.72333L9.28125 5.61395L9.40625 5.87958L12.8281 6.23895L10.2656 8.55145L10.9844 11.9108L8.25 10.3483L8 10.1921L7.75 10.3483L5.01562 11.9108L5.73438 8.55145L3.17188 6.23895L6.59375 5.87958L6.71875 5.61395L8 2.72333Z" fill="#898989"/>
</svg>
